<svg width="605px" height="161px"
 viewBox="0.00 0.00 604.74 161.00" xmlns="http://www.w3.org/2000/svg" xmlns:xlink="http://www.w3.org/1999/xlink"><g id="graph0" class="graph" transform=" rotate(0) translate(4 157)">
<title>アーキテクチャ図</title>
<polygon fill="white" stroke="transparent" points="-4,4 -4,-157 600.74,-157 600.74,4 -4,4"/>
<text text-anchor="middle" x="298.37" y="-13.8" font-family="Times,serif" font-size="14.00">アーキテクチャ図</text>
<g id="clust1" class="cluster">
<title>clusterArchitecture</title>
<polygon fill="none" stroke="black" points="8,-93 8,-145 390,-145 390,-93 8,-93"/>
</g>
<!-- domain -->
<g id="node1" class="node">
<title>domain</title>
<polygon fill="#eedd82" stroke="black" points="381.99,-137 324.01,-137 324.01,-101 381.99,-101 381.99,-137"/>
<text text-anchor="middle" x="353" y="-114.8" font-family="Times,serif" font-size="14.00">domain</text>
</g>
<!-- scala -->
<g id="node5" class="node">
<title>scala</title>
<polygon fill="whitesmoke" stroke="black" points="173,-65 119,-65 119,-29 173,-29 173,-65"/>
<text text-anchor="middle" x="146" y="-42.8" font-family="Times,serif" font-size="14.00">scala</text>
</g>
<!-- domain&#45;&gt;scala -->
<g id="edge1" class="edge">
<title>domain&#45;&gt;scala</title>
<path fill="none" stroke="black" d="M330.05,-100.95C325.26,-97.96 320.1,-95.13 315,-93 262.07,-70.95 241.38,-82.88 182.96,-64.83"/>
<polygon fill="black" stroke="black" points="183.84,-61.44 173.24,-61.67 181.67,-68.1 183.84,-61.44"/>
</g>
<!-- scala.collection -->
<g id="node6" class="node">
<title>scala.collection</title>
<polygon fill="whitesmoke" stroke="black" points="293.18,-65 190.82,-65 190.82,-29 293.18,-29 293.18,-65"/>
<text text-anchor="middle" x="242" y="-42.8" font-family="Times,serif" font-size="14.00">scala.collection</text>
</g>
<!-- domain&#45;&gt;scala.collection -->
<g id="edge2" class="edge">
<title>domain&#45;&gt;scala.collection</title>
<path fill="none" stroke="black" d="M327.31,-100.95C323.21,-98.27 319,-95.55 315,-93 303.29,-85.54 290.43,-77.55 278.81,-70.4"/>
<polygon fill="black" stroke="black" points="280.55,-67.36 270.2,-65.12 276.89,-73.33 280.55,-67.36"/>
</g>
<!-- scala.reflect -->
<g id="node7" class="node">
<title>scala.reflect</title>
<polygon fill="whitesmoke" stroke="black" points="394.46,-65 311.54,-65 311.54,-29 394.46,-29 394.46,-65"/>
<text text-anchor="middle" x="353" y="-42.8" font-family="Times,serif" font-size="14.00">scala.reflect</text>
</g>
<!-- domain&#45;&gt;scala.reflect -->
<g id="edge3" class="edge">
<title>domain&#45;&gt;scala.reflect</title>
<path fill="none" stroke="black" d="M353,-100.7C353,-92.98 353,-83.71 353,-75.11"/>
<polygon fill="black" stroke="black" points="356.5,-75.1 353,-65.1 349.5,-75.1 356.5,-75.1"/>
</g>
<!-- scala.runtime -->
<g id="node8" class="node">
<title>scala.runtime</title>
<polygon fill="whitesmoke" stroke="black" points="503.52,-65 412.48,-65 412.48,-29 503.52,-29 503.52,-65"/>
<text text-anchor="middle" x="458" y="-42.8" font-family="Times,serif" font-size="14.00">scala.runtime</text>
</g>
<!-- domain&#45;&gt;scala.runtime -->
<g id="edge4" class="edge">
<title>domain&#45;&gt;scala.runtime</title>
<path fill="none" stroke="black" d="M378.69,-100.88C392.29,-91.81 409.17,-80.55 423.86,-70.76"/>
<polygon fill="black" stroke="black" points="425.84,-73.65 432.22,-65.19 421.95,-67.82 425.84,-73.65"/>
</g>
<!-- scala.math -->
<g id="node9" class="node">
<title>scala.math</title>
<polygon fill="whitesmoke" stroke="black" points="596.97,-65 521.03,-65 521.03,-29 596.97,-29 596.97,-65"/>
<text text-anchor="middle" x="559" y="-42.8" font-family="Times,serif" font-size="14.00">scala.math</text>
</g>
<!-- domain&#45;&gt;scala.math -->
<g id="edge5" class="edge">
<title>domain&#45;&gt;scala.math</title>
<path fill="none" stroke="black" d="M382.01,-108.72C412.19,-98.99 461.06,-83.04 511.18,-65.59"/>
<polygon fill="black" stroke="black" points="512.6,-68.8 520.88,-62.2 510.29,-62.2 512.6,-68.8"/>
</g>
<!-- presentation -->
<g id="node2" class="node">
<title>presentation</title>
<polygon fill="#eedd82" stroke="black" points="306.42,-137 221.58,-137 221.58,-101 306.42,-101 306.42,-137"/>
<text text-anchor="middle" x="264" y="-114.8" font-family="Times,serif" font-size="14.00">presentation</text>
</g>
<!-- application -->
<g id="node3" class="node">
<title>application</title>
<polygon fill="#eedd82" stroke="black" points="204.2,-137 125.8,-137 125.8,-101 204.2,-101 204.2,-137"/>
<text text-anchor="middle" x="165" y="-114.8" font-family="Times,serif" font-size="14.00">application</text>
</g>
<!-- infrastructure -->
<g id="node4" class="node">
<title>infrastructure</title>
<polygon fill="#eedd82" stroke="black" points="107.91,-137 16.09,-137 16.09,-101 107.91,-101 107.91,-137"/>
<text text-anchor="middle" x="62" y="-114.8" font-family="Times,serif" font-size="14.00">infrastructure</text>
</g>
</g>
</svg>
