<svg width="993px" height="466px"
 viewBox="0.00 0.00 993.00 465.64" xmlns="http://www.w3.org/2000/svg" xmlns:xlink="http://www.w3.org/1999/xlink"><g id="graph0" class="graph" transform=" rotate(0) translate(4 461.64)">
<title>ビジネスルール関連図</title>
<polygon fill="white" stroke="transparent" points="-4,4 -4,-461.64 989,-461.64 989,4 -4,4"/>
<text text-anchor="middle" x="492.5" y="-13.8" font-family="Times,serif" font-size="14.00">ビジネスルール関連図</text>
<g id="clust1" class="cluster">
<title>cluster_warikan.domain.model</title>
<polygon fill="lemonchiffon" stroke="#eedd82" stroke-width="2" points="513,-287.64 513,-449.64 689,-449.64 689,-287.64 513,-287.64"/>
<text text-anchor="middle" x="601" y="-434.44" font-family="Times,serif" font-size="14.00">warikan.domain.model</text>
</g>
<g id="clust2" class="cluster">
<title>cluster_warikan.domain.model.amount</title>
<polygon fill="lemonchiffon" stroke="#eedd82" stroke-width="2" points="8,-37 8,-368.64 442,-368.64 442,-37 8,-37"/>
<text text-anchor="middle" x="225" y="-353.44" font-family="Times,serif" font-size="14.00">amount</text>
</g>
<g id="clust3" class="cluster">
<title>cluster_warikan.domain.model.member</title>
<polygon fill="lemonchiffon" stroke="#eedd82" stroke-width="2" points="697,-126 697,-368.64 929,-368.64 929,-126 697,-126"/>
<text text-anchor="middle" x="813" y="-353.44" font-family="Times,serif" font-size="14.00">member</text>
</g>
<g id="clust4" class="cluster">
<title>cluster_warikan.domain.model.money</title>
<polygon fill="lemonchiffon" stroke="#eedd82" stroke-width="2" points="486,-37 486,-118 630,-118 630,-37 486,-37"/>
<text text-anchor="middle" x="558" y="-102.8" font-family="Times,serif" font-size="14.00">money</text>
</g>
<g id="clust5" class="cluster">
<title>cluster_warikan.domain.model.payment</title>
<polygon fill="lemonchiffon" stroke="#eedd82" stroke-width="2" points="869,-37 869,-118 977,-118 977,-37 869,-37"/>
<text text-anchor="middle" x="923" y="-102.8" font-family="Times,serif" font-size="14.00">payment</text>
</g>
<!-- warikan.domain.model.PartyName -->
<g id="node1" class="node">
<title>warikan.domain.model.PartyName</title>
<polygon fill="#eedd82" stroke="black" points="599.48,-338.64 520.52,-338.64 520.52,-295.64 599.48,-295.64 599.48,-338.64"/>
<text text-anchor="middle" x="560" y="-323.44" font-family="Times,serif" font-size="14.00">飲み会名</text>
<text text-anchor="middle" x="560" y="-302.44" font-family="Times,serif" font-size="14.00">PartyName</text>
</g>
<!-- warikan.domain.model.Party -->
<g id="node2" class="node">
<title>warikan.domain.model.Party</title>
<polygon fill="#eedd82" stroke="black" points="584,-419.64 526,-419.64 526,-376.64 584,-376.64 584,-419.64"/>
<text text-anchor="middle" x="555" y="-404.44" font-family="Times,serif" font-size="14.00">飲み会</text>
<text text-anchor="middle" x="555" y="-383.44" font-family="Times,serif" font-size="14.00">Party</text>
</g>
<!-- warikan.domain.model.Party&#45;&gt;warikan.domain.model.PartyName -->
<g id="edge1" class="edge">
<title>warikan.domain.model.Party&#45;&gt;warikan.domain.model.PartyName</title>
<path fill="none" stroke="black" d="M556.31,-376.38C556.85,-367.95 557.48,-358.03 558.06,-348.79"/>
<polygon fill="black" stroke="black" points="561.56,-348.96 558.7,-338.76 554.57,-348.52 561.56,-348.96"/>
</g>
<!-- warikan.domain.model.Warikan -->
<g id="node3" class="node">
<title>warikan.domain.model.Warikan</title>
<polygon fill="#eedd82" stroke="black" points="680.58,-338.64 617.42,-338.64 617.42,-295.64 680.58,-295.64 680.58,-338.64"/>
<text text-anchor="middle" x="649" y="-323.44" font-family="Times,serif" font-size="14.00">割り勘</text>
<text text-anchor="middle" x="649" y="-302.44" font-family="Times,serif" font-size="14.00">Warikan</text>
</g>
<!-- warikan.domain.model.Party&#45;&gt;warikan.domain.model.Warikan -->
<g id="edge2" class="edge">
<title>warikan.domain.model.Party&#45;&gt;warikan.domain.model.Warikan</title>
<path fill="none" stroke="black" d="M584.09,-384.15C592.25,-379.82 600.84,-374.57 608,-368.64 615.6,-362.35 622.79,-354.47 628.97,-346.82"/>
<polygon fill="black" stroke="black" points="631.9,-348.74 635.24,-338.69 626.36,-344.47 631.9,-348.74"/>
</g>
<!-- warikan.domain.model.amount.PaymentAmount -->
<g id="node4" class="node">
<title>warikan.domain.model.amount.PaymentAmount</title>
<polygon fill="#eedd82" stroke="black" points="258.38,-177.91 147.62,-177.91 147.62,-134.91 258.38,-134.91 258.38,-177.91"/>
<text text-anchor="middle" x="203" y="-162.71" font-family="Times,serif" font-size="14.00">支払金額</text>
<text text-anchor="middle" x="203" y="-141.71" font-family="Times,serif" font-size="14.00">PaymentAmount</text>
</g>
<!-- warikan.domain.model.Party&#45;&gt;warikan.domain.model.amount.PaymentAmount -->
<g id="edge5" class="edge">
<title>warikan.domain.model.Party&#45;&gt;warikan.domain.model.amount.PaymentAmount</title>
<path fill="none" stroke="black" d="M525.95,-397.38C499.55,-396.09 461.02,-390.21 436,-368.64 380.17,-320.52 427.64,-265.37 374,-214.82 373.74,-214.57 316.17,-195.27 267.9,-179.12"/>
<polygon fill="black" stroke="black" points="268.99,-175.79 258.4,-175.93 266.77,-182.43 268.99,-175.79"/>
</g>
<!-- warikan.domain.model.amount.PartyPaymentTypeRatios -->
<g id="node5" class="node">
<title>warikan.domain.model.amount.PartyPaymentTypeRatios</title>
<polygon fill="#eedd82" stroke="black" points="434.11,-177.91 275.89,-177.91 275.89,-134.91 434.11,-134.91 434.11,-177.91"/>
<text text-anchor="middle" x="355" y="-162.71" font-family="Times,serif" font-size="14.00">支払金額比重リスト</text>
<text text-anchor="middle" x="355" y="-141.71" font-family="Times,serif" font-size="14.00">PartyPaymentTypeRatios</text>
</g>
<!-- warikan.domain.model.Party&#45;&gt;warikan.domain.model.amount.PartyPaymentTypeRatios -->
<g id="edge4" class="edge">
<title>warikan.domain.model.Party&#45;&gt;warikan.domain.model.amount.PartyPaymentTypeRatios</title>
<path fill="none" stroke="black" d="M525.7,-391.92C510.19,-387.85 491.78,-380.77 479,-368.64 424.92,-317.3 453.88,-276.52 412,-214.82 404.85,-204.29 395.62,-194.02 386.68,-185.15"/>
<polygon fill="black" stroke="black" points="388.92,-182.45 379.29,-178.04 384.07,-187.5 388.92,-182.45"/>
</g>
<!-- warikan.domain.model.amount.BillingAmount -->
<g id="node6" class="node">
<title>warikan.domain.model.amount.BillingAmount</title>
<polygon fill="#eedd82" stroke="black" points="312.29,-338.64 211.71,-338.64 211.71,-295.64 312.29,-295.64 312.29,-338.64"/>
<text text-anchor="middle" x="262" y="-323.44" font-family="Times,serif" font-size="14.00">請求金額</text>
<text text-anchor="middle" x="262" y="-302.44" font-family="Times,serif" font-size="14.00">BillingAmount</text>
</g>
<!-- warikan.domain.model.Party&#45;&gt;warikan.domain.model.amount.BillingAmount -->
<g id="edge3" class="edge">
<title>warikan.domain.model.Party&#45;&gt;warikan.domain.model.amount.BillingAmount</title>
<path fill="none" stroke="black" d="M525.74,-396.84C484.51,-395.61 407.49,-390.28 346,-368.64 329.38,-362.79 312.47,-353.42 298.22,-344.32"/>
<polygon fill="black" stroke="black" points="299.99,-341.3 289.72,-338.73 296.15,-347.15 299.99,-341.3"/>
</g>
<!-- warikan.domain.model.amount.PaymentTypeRatio -->
<g id="node7" class="node">
<title>warikan.domain.model.amount.PaymentRatio</title>
<polygon fill="#eedd82" stroke="black" points="264.61,-88 141.39,-88 141.39,-45 264.61,-45 264.61,-88"/>
<text text-anchor="middle" x="203" y="-72.8" font-family="Times,serif" font-size="14.00">支払区分比重</text>
<text text-anchor="middle" x="203" y="-51.8" font-family="Times,serif" font-size="14.00">PaymentTypeRatio</text>
</g>
<!-- warikan.domain.model.Party&#45;&gt;warikan.domain.model.amount.PaymentTypeRatio -->
<g id="edge7" class="edge">
<title>warikan.domain.model.Party&#45;&gt;warikan.domain.model.amount.PaymentRatio</title>
<path fill="none" stroke="black" d="M525.75,-381.88C520.59,-378.13 515.7,-373.7 512,-368.64 445.83,-278.13 523.77,-203.76 443,-126 419.11,-103 336.51,-86.44 274.84,-76.93"/>
<polygon fill="black" stroke="black" points="275.16,-73.44 264.75,-75.41 274.12,-80.36 275.16,-73.44"/>
</g>
<!-- warikan.domain.model.amount.PaymentBaseAmount -->
<g id="node8" class="node">
<title>warikan.domain.model.amount.PaymentBaseAmount</title>
<polygon fill="#eedd82" stroke="black" points="174.1,-255.23 35.9,-255.23 35.9,-219.23 174.1,-219.23 174.1,-255.23"/>
<text text-anchor="middle" x="105" y="-233.03" font-family="Times,serif" font-size="14.00">PaymentBaseAmount</text>
</g>
<!-- warikan.domain.model.Party&#45;&gt;warikan.domain.model.amount.PaymentBaseAmount -->
<g id="edge6" class="edge">
<title>warikan.domain.model.Party&#45;&gt;warikan.domain.model.amount.PaymentBaseAmount</title>
<path fill="none" stroke="black" d="M525.75,-396.14C446.36,-393.25 230.96,-384.04 203,-368.64 160.92,-345.46 131.58,-295.73 116.57,-264.82"/>
<polygon fill="black" stroke="black" points="119.61,-263.08 112.2,-255.51 113.27,-266.05 119.61,-263.08"/>
</g>
<!-- warikan.domain.model.amount.WeightedSum -->
<g id="node10" class="node">
<title>warikan.domain.model.amount.WeightedSum</title>
<polygon fill="#eedd82" stroke="black" points="110.48,-177.91 15.52,-177.91 15.52,-134.91 110.48,-134.91 110.48,-177.91"/>
<text text-anchor="middle" x="63" y="-162.71" font-family="Times,serif" font-size="14.00">加重和</text>
<text text-anchor="middle" x="63" y="-141.71" font-family="Times,serif" font-size="14.00">WeightedSum</text>
</g>
<!-- warikan.domain.model.Party&#45;&gt;warikan.domain.model.amount.WeightedSum -->
<g id="edge8" class="edge">
<title>warikan.domain.model.Party&#45;&gt;warikan.domain.model.amount.WeightedSum</title>
<path fill="none" stroke="black" d="M525.82,-395.15C486.35,-391.9 418.73,-384.2 400,-368.64 343.68,-321.85 397.45,-261.45 341,-214.82 270.69,-156.74 227.88,-199.21 139,-178.82 132.95,-177.43 126.66,-175.87 120.41,-174.23"/>
<polygon fill="black" stroke="black" points="121.22,-170.82 110.66,-171.61 119.41,-177.58 121.22,-170.82"/>
</g>
<!-- warikan.domain.model.member.MemberIds -->
<g id="node11" class="node">
<title>warikan.domain.model.member.MemberIds</title>
<polygon fill="#eedd82" stroke="black" points="839.35,-259.55 724.65,-259.55 724.65,-214.91 839.35,-214.91 839.35,-259.55"/>
<text text-anchor="middle" x="782" y="-244.44" font-family="Times,serif" font-size="14.00">参会者IDリスト</text>
<text text-anchor="middle" x="782" y="-221.62" font-family="Times,serif" font-size="14.00">MemberIds</text>
</g>
<!-- warikan.domain.model.Party&#45;&gt;warikan.domain.model.member.MemberIds -->
<g id="edge10" class="edge">
<title>warikan.domain.model.Party&#45;&gt;warikan.domain.model.member.MemberIds</title>
<path fill="none" stroke="black" d="M584.11,-396.08C648.57,-393.44 798.87,-385.53 814,-368.64 838.02,-341.83 824.2,-322.16 814,-287.64 812.05,-281.06 808.93,-274.52 805.37,-268.47"/>
<polygon fill="black" stroke="black" points="808.28,-266.53 799.94,-259.99 802.39,-270.3 808.28,-266.53"/>
</g>
<!-- warikan.domain.model.member.Member -->
<g id="node12" class="node">
<title>warikan.domain.model.member.Member</title>
<polygon fill="#eedd82" stroke="black" points="920.93,-258.73 857.07,-258.73 857.07,-215.73 920.93,-215.73 920.93,-258.73"/>
<text text-anchor="middle" x="889" y="-243.53" font-family="Times,serif" font-size="14.00">参加者</text>
<text text-anchor="middle" x="889" y="-222.53" font-family="Times,serif" font-size="14.00">Member</text>
</g>
<!-- warikan.domain.model.Party&#45;&gt;warikan.domain.model.member.Member -->
<g id="edge9" class="edge">
<title>warikan.domain.model.Party&#45;&gt;warikan.domain.model.member.Member</title>
<path fill="none" stroke="black" d="M584.18,-397.84C647.7,-398.79 795.9,-397.74 835,-368.64 866.65,-345.08 879.85,-299.57 885.29,-269.04"/>
<polygon fill="black" stroke="black" points="888.78,-269.35 886.9,-258.92 881.87,-268.25 888.78,-269.35"/>
</g>
<!-- warikan.domain.model.member.Members -->
<g id="node13" class="node">
<title>warikan.domain.model.member.Members</title>
<polygon fill="#eedd82" stroke="black" points="804.58,-338.64 705.42,-338.64 705.42,-295.64 804.58,-295.64 804.58,-338.64"/>
<text text-anchor="middle" x="755" y="-323.44" font-family="Times,serif" font-size="14.00">参加者リスト</text>
<text text-anchor="middle" x="755" y="-302.44" font-family="Times,serif" font-size="14.00">Members</text>
</g>
<!-- warikan.domain.model.Party&#45;&gt;warikan.domain.model.member.Members -->
<g id="edge11" class="edge">
<title>warikan.domain.model.Party&#45;&gt;warikan.domain.model.member.Members</title>
<path fill="none" stroke="black" d="M584.02,-395.18C612.86,-392.33 657.76,-385.39 693,-368.64 705.27,-362.81 717.22,-354.06 727.3,-345.47"/>
<polygon fill="black" stroke="black" points="729.79,-347.94 734.95,-338.68 725.15,-342.7 729.79,-347.94"/>
</g>
<!-- warikan.domain.model.payment.PaymentType -->
<g id="node17" class="node">
<title>warikan.domain.model.payment.PaymentType</title>
<polygon fill="#eedd82" stroke="black" points="969.28,-88 876.72,-88 876.72,-45 969.28,-45 969.28,-88"/>
<text text-anchor="middle" x="923" y="-72.8" font-family="Times,serif" font-size="14.00">支払区分</text>
<text text-anchor="middle" x="923" y="-51.8" font-family="Times,serif" font-size="14.00">PaymentType</text>
</g>
<!-- warikan.domain.model.Party&#45;&gt;warikan.domain.model.payment.PaymentType -->
<g id="edge12" class="edge">
<title>warikan.domain.model.Party&#45;&gt;warikan.domain.model.payment.PaymentType</title>
<path fill="none" stroke="black" d="M584.04,-397.17C668.48,-396.94 909.42,-394.06 933,-368.64 1002.58,-293.62 959.99,-157.42 936.02,-97.34"/>
<polygon fill="black" stroke="black" points="939.24,-95.97 932.22,-88.04 932.76,-98.62 939.24,-95.97"/>
</g>
<!-- warikan.domain.model.Warikan&#45;&gt;warikan.domain.model.amount.PaymentAmount -->
<g id="edge33" class="edge">
<title>warikan.domain.model.Warikan&#45;&gt;warikan.domain.model.amount.PaymentAmount</title>
<path fill="none" stroke="black" d="M621.36,-295.55C617,-292.71 612.46,-289.97 608,-287.64 525.64,-244.6 500.79,-242.24 412,-214.82 351.53,-196.14 332.53,-197.21 268.24,-179.07"/>
<polygon fill="black" stroke="black" points="269,-175.65 258.42,-176.25 267.06,-182.37 269,-175.65"/>
</g>
<!-- warikan.domain.model.amount.PaymentTotalAmount -->
<g id="node9" class="node">
<title>warikan.domain.model.amount.PaymentTotalAmount</title>
<polygon fill="#eedd82" stroke="black" points="331.95,-258.73 192.05,-258.73 192.05,-215.73 331.95,-215.73 331.95,-258.73"/>
<text text-anchor="middle" x="262" y="-243.53" font-family="Times,serif" font-size="14.00">合計支払金額</text>
<text text-anchor="middle" x="262" y="-222.53" font-family="Times,serif" font-size="14.00">PaymentTotalAmount</text>
</g>
<!-- warikan.domain.model.Warikan&#45;&gt;warikan.domain.model.amount.PaymentTotalAmount -->
<g id="edge34" class="edge">
<title>warikan.domain.model.Warikan&#45;&gt;warikan.domain.model.amount.PaymentTotalAmount</title>
<path fill="none" stroke="black" d="M623.12,-295.52C618.31,-292.47 613.16,-289.67 608,-287.64 601.82,-285.21 442.42,-263.02 342.16,-249.21"/>
<polygon fill="black" stroke="black" points="342.43,-245.72 332.05,-247.82 341.48,-252.65 342.43,-245.72"/>
</g>
<!-- warikan.domain.model.Warikan&#45;&gt;warikan.domain.model.member.Member -->
<g id="edge35" class="edge">
<title>warikan.domain.model.Warikan&#45;&gt;warikan.domain.model.member.Member</title>
<path fill="none" stroke="black" d="M677.47,-295.42C682.47,-292.46 687.75,-289.72 693,-287.64 755.17,-263.04 779.56,-280.58 847.32,-259.28"/>
<polygon fill="black" stroke="black" points="848.79,-262.48 857.18,-256.01 846.59,-255.84 848.79,-262.48"/>
</g>
<!-- warikan.domain.model.member.MemberId -->
<g id="node15" class="node">
<title>warikan.domain.model.member.MemberId</title>
<polygon fill="#eedd82" stroke="black" points="780.59,-178.73 705.41,-178.73 705.41,-134.09 780.59,-134.09 780.59,-178.73"/>
<text text-anchor="middle" x="743" y="-163.62" font-family="Times,serif" font-size="14.00">参加者ID</text>
<text text-anchor="middle" x="743" y="-140.8" font-family="Times,serif" font-size="14.00">MemberId</text>
</g>
<!-- warikan.domain.model.Warikan&#45;&gt;warikan.domain.model.member.MemberId -->
<g id="edge36" class="edge">
<title>warikan.domain.model.Warikan&#45;&gt;warikan.domain.model.member.MemberId</title>
<path fill="none" stroke="black" d="M661.29,-295.39C677.55,-267.93 706.33,-219.32 725.04,-187.75"/>
<polygon fill="black" stroke="black" points="728.17,-189.32 730.26,-178.93 722.15,-185.75 728.17,-189.32"/>
</g>
<!-- warikan.domain.model.money.Money -->
<g id="node16" class="node">
<title>warikan.domain.model.money.Money</title>
<polygon fill="#eedd82" stroke="black" points="621.8,-88 494.2,-88 494.2,-45 621.8,-45 621.8,-88"/>
<text text-anchor="middle" x="558" y="-72.8" font-family="Times,serif" font-size="14.00">金額を表すクラス</text>
<text text-anchor="middle" x="558" y="-51.8" font-family="Times,serif" font-size="14.00">Money</text>
</g>
<!-- warikan.domain.model.Warikan&#45;&gt;warikan.domain.model.money.Money -->
<g id="edge37" class="edge">
<title>warikan.domain.model.Warikan&#45;&gt;warikan.domain.model.money.Money</title>
<path fill="none" stroke="black" d="M648.25,-295.59C646.19,-259.44 638.53,-182.94 610,-126 604.54,-115.1 596.52,-104.66 588.4,-95.68"/>
<polygon fill="black" stroke="black" points="590.73,-93.05 581.31,-88.21 585.65,-97.87 590.73,-93.05"/>
</g>
<!-- warikan.domain.model.amount.PaymentAmount&#45;&gt;warikan.domain.model.amount.PaymentTypeRatio -->
<g id="edge13" class="edge">
<title>warikan.domain.model.amount.PaymentAmount&#45;&gt;warikan.domain.model.amount.PaymentRatio</title>
<path fill="none" stroke="black" d="M203,-134.58C203,-123.74 203,-110.28 203,-98.27"/>
<polygon fill="black" stroke="black" points="206.5,-98.18 203,-88.18 199.5,-98.18 206.5,-98.18"/>
</g>
<!-- warikan.domain.model.amount.PaymentAmount&#45;&gt;warikan.domain.model.money.Money -->
<g id="edge14" class="edge">
<title>warikan.domain.model.amount.PaymentAmount&#45;&gt;warikan.domain.model.money.Money</title>
<path fill="none" stroke="black" d="M241.4,-134.88C249.64,-131.31 258.44,-128.07 267,-126 344.4,-107.25 368.54,-136.48 446,-118 468.84,-112.55 492.74,-102.45 512.57,-92.71"/>
<polygon fill="black" stroke="black" points="514.31,-95.75 521.67,-88.13 511.16,-89.5 514.31,-95.75"/>
</g>
<!-- warikan.domain.model.amount.PartyPaymentTypeRatios&#45;&gt;warikan.domain.model.amount.PaymentTypeRatio -->
<g id="edge15" class="edge">
<title>warikan.domain.model.amount.PartyPaymentTypeRatios&#45;&gt;warikan.domain.model.amount.PaymentRatio</title>
<path fill="none" stroke="black" d="M319.36,-134.8C297.91,-122.39 270.4,-106.48 247.52,-93.25"/>
<polygon fill="black" stroke="black" points="249.09,-90.11 238.68,-88.13 245.58,-96.17 249.09,-90.11"/>
</g>
<!-- warikan.domain.model.amount.PartyPaymentTypeRatios&#45;&gt;warikan.domain.model.payment.PaymentType -->
<g id="edge16" class="edge">
<title>warikan.domain.model.amount.PartyPaymentTypeRatios&#45;&gt;warikan.domain.model.payment.PaymentType</title>
<path fill="none" stroke="black" d="M434.19,-145.64C490.11,-138.54 566.74,-128.38 634,-118 714.96,-105.5 808.27,-88.77 866.45,-78.07"/>
<polygon fill="black" stroke="black" points="867.34,-81.46 876.54,-76.2 866.07,-74.58 867.34,-81.46"/>
</g>
<!-- warikan.domain.model.amount.BillingAmount&#45;&gt;warikan.domain.model.amount.PaymentBaseAmount -->
<g id="edge17" class="edge">
<title>warikan.domain.model.amount.BillingAmount&#45;&gt;warikan.domain.model.amount.PaymentBaseAmount</title>
<path fill="none" stroke="black" d="M220.34,-295.47C198.14,-284.45 170.86,-270.91 148.41,-259.77"/>
<polygon fill="black" stroke="black" points="149.94,-256.63 139.43,-255.32 146.83,-262.9 149.94,-256.63"/>
</g>
<!-- warikan.domain.model.amount.BillingAmount&#45;&gt;warikan.domain.model.amount.PaymentTotalAmount -->
<g id="edge18" class="edge">
<title>warikan.domain.model.amount.BillingAmount&#45;&gt;warikan.domain.model.amount.PaymentTotalAmount</title>
<path fill="none" stroke="black" d="M262,-295.26C262,-287.25 262,-277.93 262,-269.17"/>
<polygon fill="black" stroke="black" points="265.5,-268.9 262,-258.9 258.5,-268.9 265.5,-268.9"/>
</g>
<!-- warikan.domain.model.amount.BillingAmount&#45;&gt;warikan.domain.model.amount.WeightedSum -->
<g id="edge19" class="edge">
<title>warikan.domain.model.amount.BillingAmount&#45;&gt;warikan.domain.model.amount.WeightedSum</title>
<path fill="none" stroke="black" d="M211.53,-311.23C149.46,-304.02 49.53,-288.23 27,-259.64 10.14,-238.24 23.86,-208.35 38.97,-186.41"/>
<polygon fill="black" stroke="black" points="41.94,-188.28 44.99,-178.14 36.28,-184.17 41.94,-188.28"/>
</g>
<!-- warikan.domain.model.amount.BillingAmount&#45;&gt;warikan.domain.model.money.Money -->
<g id="edge20" class="edge">
<title>warikan.domain.model.amount.BillingAmount&#45;&gt;warikan.domain.model.money.Money</title>
<path fill="none" stroke="black" d="M312.32,-309.55C381.92,-297.43 505.17,-264.45 560,-178.82 575.25,-155 572.41,-122.03 567.18,-98.16"/>
<polygon fill="black" stroke="black" points="570.53,-97.11 564.75,-88.22 563.73,-98.77 570.53,-97.11"/>
</g>
<!-- warikan.domain.model.amount.PaymentBaseAmount&#45;&gt;warikan.domain.model.amount.PaymentAmount -->
<g id="edge21" class="edge">
<title>warikan.domain.model.amount.PaymentBaseAmount&#45;&gt;warikan.domain.model.amount.PaymentAmount</title>
<path fill="none" stroke="black" d="M126.26,-219.13C138.78,-209.06 154.9,-196.1 169.13,-184.65"/>
<polygon fill="black" stroke="black" points="171.65,-187.12 177.25,-178.12 167.26,-181.66 171.65,-187.12"/>
</g>
<!-- warikan.domain.model.amount.PaymentBaseAmount&#45;&gt;warikan.domain.model.amount.PaymentTypeRatio -->
<g id="edge22" class="edge">
<title>warikan.domain.model.amount.PaymentBaseAmount&#45;&gt;warikan.domain.model.amount.PaymentRatio</title>
<path fill="none" stroke="black" d="M109.11,-219.11C115.74,-192.25 129.09,-141.65 139,-126 146.32,-114.45 156.5,-103.73 166.6,-94.7"/>
<polygon fill="black" stroke="black" points="168.93,-97.31 174.25,-88.15 164.38,-92 168.93,-97.31"/>
</g>
<!-- warikan.domain.model.amount.PaymentBaseAmount&#45;&gt;warikan.domain.model.money.Money -->
<g id="edge23" class="edge">
<title>warikan.domain.model.amount.PaymentBaseAmount&#45;&gt;warikan.domain.model.money.Money</title>
<path fill="none" stroke="black" d="M164,-219.17C170.39,-217.58 176.81,-216.09 183,-214.82 297.27,-191.33 338.13,-229.92 443,-178.82 482,-159.82 516.19,-122.6 536.95,-96.44"/>
<polygon fill="black" stroke="black" points="539.84,-98.43 543.2,-88.38 534.31,-94.14 539.84,-98.43"/>
</g>
<!-- warikan.domain.model.amount.PaymentTotalAmount&#45;&gt;warikan.domain.model.money.Money -->
<g id="edge24" class="edge">
<title>warikan.domain.model.amount.PaymentTotalAmount&#45;&gt;warikan.domain.model.money.Money</title>
<path fill="none" stroke="black" d="M331.92,-230.06C402.85,-222.36 506.04,-206.66 534,-178.82 554.96,-157.95 559.62,-123.45 559.87,-98.38"/>
<polygon fill="black" stroke="black" points="563.37,-98.23 559.74,-88.28 556.37,-98.32 563.37,-98.23"/>
</g>
<!-- warikan.domain.model.amount.WeightedSum&#45;&gt;warikan.domain.model.amount.PaymentTypeRatio -->
<g id="edge25" class="edge">
<title>warikan.domain.model.amount.WeightedSum&#45;&gt;warikan.domain.model.amount.PaymentRatio</title>
<path fill="none" stroke="black" d="M95.82,-134.8C115.34,-122.54 140.29,-106.88 161.21,-93.74"/>
<polygon fill="black" stroke="black" points="163.29,-96.57 169.9,-88.29 159.57,-90.64 163.29,-96.57"/>
</g>
<!-- warikan.domain.model.member.MemberIds&#45;&gt;warikan.domain.model.member.MemberId -->
<g id="edge26" class="edge">
<title>warikan.domain.model.member.MemberIds&#45;&gt;warikan.domain.model.member.MemberId</title>
<path fill="none" stroke="black" d="M771.34,-214.69C767.26,-206.44 762.52,-196.86 758.1,-187.92"/>
<polygon fill="black" stroke="black" points="761.22,-186.33 753.64,-178.92 754.94,-189.44 761.22,-186.33"/>
</g>
<!-- warikan.domain.model.member.MemberName -->
<g id="node14" class="node">
<title>warikan.domain.model.member.MemberName</title>
<polygon fill="#eedd82" stroke="black" points="895.36,-177.91 798.64,-177.91 798.64,-134.91 895.36,-134.91 895.36,-177.91"/>
<text text-anchor="middle" x="847" y="-162.71" font-family="Times,serif" font-size="14.00">参加者名</text>
<text text-anchor="middle" x="847" y="-141.71" font-family="Times,serif" font-size="14.00">MemberName</text>
</g>
<!-- warikan.domain.model.member.Member&#45;&gt;warikan.domain.model.member.MemberName -->
<g id="edge28" class="edge">
<title>warikan.domain.model.member.Member&#45;&gt;warikan.domain.model.member.MemberName</title>
<path fill="none" stroke="black" d="M877.96,-215.52C873.33,-206.83 867.86,-196.56 862.82,-187.1"/>
<polygon fill="black" stroke="black" points="865.75,-185.16 857.96,-177.98 859.58,-188.45 865.75,-185.16"/>
</g>
<!-- warikan.domain.model.member.Member&#45;&gt;warikan.domain.model.member.MemberId -->
<g id="edge27" class="edge">
<title>warikan.domain.model.member.Member&#45;&gt;warikan.domain.model.member.MemberId</title>
<path fill="none" stroke="black" d="M856.96,-218.93C837.19,-208.26 811.49,-194.38 789.5,-182.51"/>
<polygon fill="black" stroke="black" points="791.11,-179.41 780.65,-177.74 787.79,-185.57 791.11,-179.41"/>
</g>
<!-- warikan.domain.model.member.Member&#45;&gt;warikan.domain.model.payment.PaymentType -->
<g id="edge29" class="edge">
<title>warikan.domain.model.member.Member&#45;&gt;warikan.domain.model.payment.PaymentType</title>
<path fill="none" stroke="black" d="M894.85,-215.61C897.82,-204.72 901.35,-191.11 904,-178.82 909.85,-151.69 915.04,-120.52 918.51,-98.07"/>
<polygon fill="black" stroke="black" points="921.98,-98.53 920.03,-88.12 915.06,-97.48 921.98,-98.53"/>
</g>
<!-- warikan.domain.model.member.Members&#45;&gt;warikan.domain.model.member.MemberIds -->
<g id="edge32" class="edge">
<title>warikan.domain.model.member.Members&#45;&gt;warikan.domain.model.member.MemberIds</title>
<path fill="none" stroke="black" d="M762.24,-295.26C765,-287.27 768.23,-277.98 771.25,-269.24"/>
<polygon fill="black" stroke="black" points="774.59,-270.3 774.56,-259.71 767.97,-268.01 774.59,-270.3"/>
</g>
<!-- warikan.domain.model.member.Members&#45;&gt;warikan.domain.model.member.Member -->
<g id="edge30" class="edge">
<title>warikan.domain.model.member.Members&#45;&gt;warikan.domain.model.member.Member</title>
<path fill="none" stroke="black" d="M790.56,-295.47C808.28,-285.16 829.8,-272.65 848.2,-261.95"/>
<polygon fill="black" stroke="black" points="850.06,-264.92 856.94,-256.87 846.54,-258.87 850.06,-264.92"/>
</g>
<!-- warikan.domain.model.member.Members&#45;&gt;warikan.domain.model.member.MemberId -->
<g id="edge31" class="edge">
<title>warikan.domain.model.member.Members&#45;&gt;warikan.domain.model.member.MemberId</title>
<path fill="none" stroke="black" d="M736.25,-295.51C728.36,-285.46 720.08,-272.73 716,-259.64 710.07,-240.62 711.66,-234.26 716,-214.82 718.02,-205.76 721.64,-196.44 725.58,-188.02"/>
<polygon fill="black" stroke="black" points="728.78,-189.46 730.11,-178.95 722.51,-186.34 728.78,-189.46"/>
</g>
</g>
</svg>
