<svg width="508px" height="219px"
 viewBox="0.00 0.00 507.94 219.49" xmlns="http://www.w3.org/2000/svg" xmlns:xlink="http://www.w3.org/1999/xlink"><g id="graph0" class="graph" transform=" rotate(0) translate(4 215.49)">
<title>区分使用図</title>
<polygon fill="white" stroke="transparent" points="-4,4 -4,-215.49 503.94,-215.49 503.94,4 -4,4"/>
<text text-anchor="middle" x="249.97" y="-13.8" font-family="Times,serif" font-size="14.00">区分使用図</text>
<!-- warikan.domain.model.payment.PaymentType -->
<g id="node1" class="node">
<title>warikan.domain.model.payment.PaymentType</title>
<polygon fill="#eedd82" stroke="black" points="499.83,-141.5 407.27,-141.5 407.27,-98.5 499.83,-98.5 499.83,-141.5"/>
<text text-anchor="middle" x="453.55" y="-126.3" font-family="Times,serif" font-size="14.00">支払区分</text>
<text text-anchor="middle" x="453.55" y="-105.3" font-family="Times,serif" font-size="14.00">PaymentType</text>
</g>
<!-- warikan.domain.model.Party -->
<g id="node2" class="node">
<title>warikan.domain.model.Party</title>
<polygon fill="white" stroke="black" points="58,-138 0,-138 0,-102 58,-102 58,-138"/>
<text text-anchor="middle" x="29" y="-119.3" font-family="Times,serif" font-size="14.00">飲み会</text>
</g>
<!-- warikan.domain.model.Party&#45;&gt;warikan.domain.model.payment.PaymentType -->
<g id="edge8" class="edge">
<title>warikan.domain.model.Party&#45;&gt;warikan.domain.model.payment.PaymentType</title>
<path fill="none" stroke="black" d="M39.69,-138.07C50.34,-155.81 69.28,-181.8 94,-193 199.63,-240.87 336.94,-183.35 407.03,-146.4"/>
<polygon fill="black" stroke="black" points="408.9,-149.37 416.06,-141.56 405.59,-143.2 408.9,-149.37"/>
</g>
<!-- warikan.domain.model.Warikan -->
<g id="node3" class="node">
<title>warikan.domain.model.Warikan</title>
<polygon fill="white" stroke="black" points="172.79,-184 114.79,-184 114.79,-148 172.79,-148 172.79,-184"/>
<text text-anchor="middle" x="143.79" y="-165.3" font-family="Times,serif" font-size="14.00">割り勘</text>
</g>
<!-- warikan.domain.model.Party&#45;&gt;warikan.domain.model.Warikan -->
<g id="edge2" class="edge">
<title>warikan.domain.model.Party&#45;&gt;warikan.domain.model.Warikan</title>
<path fill="none" stroke="black" d="M58.17,-131.49C72.3,-137.25 89.62,-144.31 104.9,-150.55"/>
<polygon fill="black" stroke="black" points="104.01,-153.96 114.59,-154.5 106.65,-147.48 104.01,-153.96"/>
</g>
<!-- warikan.domain.model.amount.PartyPaymentTypeRatios -->
<g id="node4" class="node">
<title>warikan.domain.model.amount.PartyPaymentTypeRatios</title>
<polygon fill="white" stroke="black" points="370.95,-65 229.79,-65 229.79,-29 370.95,-29 370.95,-65"/>
<text text-anchor="middle" x="300.37" y="-46.3" font-family="Times,serif" font-size="14.00">支払金額比重リスト</text>
</g>
<!-- warikan.domain.model.Party&#45;&gt;warikan.domain.model.amount.PartyPaymentTypeRatios -->
<g id="edge6" class="edge">
<title>warikan.domain.model.Party&#45;&gt;warikan.domain.model.amount.PartyPaymentTypeRatios</title>
<path fill="none" stroke="black" d="M39.69,-101.93C50.34,-84.19 69.28,-58.2 94,-47 132.84,-29.4 180.21,-28.24 219.66,-32.01"/>
<polygon fill="black" stroke="black" points="219.46,-35.51 229.77,-33.1 220.2,-28.55 219.46,-35.51"/>
</g>
<!-- warikan.domain.model.member.Member -->
<g id="node5" class="node">
<title>warikan.domain.model.member.Member</title>
<polygon fill="white" stroke="black" points="329.37,-138 271.37,-138 271.37,-102 329.37,-102 329.37,-138"/>
<text text-anchor="middle" x="300.37" y="-119.3" font-family="Times,serif" font-size="14.00">参加者</text>
</g>
<!-- warikan.domain.model.Party&#45;&gt;warikan.domain.model.member.Member -->
<g id="edge5" class="edge">
<title>warikan.domain.model.Party&#45;&gt;warikan.domain.model.member.Member</title>
<path fill="none" stroke="black" d="M58.07,-120C106.68,-120 206.58,-120 261.36,-120"/>
<polygon fill="black" stroke="black" points="261.37,-123.5 271.37,-120 261.37,-116.5 261.37,-123.5"/>
</g>
<!-- warikan.domain.model.member.Members -->
<g id="node6" class="node">
<title>warikan.domain.model.member.Members</title>
<polygon fill="white" stroke="black" points="193.37,-92 94.21,-92 94.21,-56 193.37,-56 193.37,-92"/>
<text text-anchor="middle" x="143.79" y="-73.3" font-family="Times,serif" font-size="14.00">参加者リスト</text>
</g>
<!-- warikan.domain.model.Party&#45;&gt;warikan.domain.model.member.Members -->
<g id="edge3" class="edge">
<title>warikan.domain.model.Party&#45;&gt;warikan.domain.model.member.Members</title>
<path fill="none" stroke="black" d="M58.17,-108.51C67.56,-104.68 78.35,-100.28 89.02,-95.93"/>
<polygon fill="black" stroke="black" points="90.38,-99.15 98.32,-92.14 87.74,-92.67 90.38,-99.15"/>
</g>
<!-- warikan.domain.model.Warikan&#45;&gt;warikan.domain.model.member.Member -->
<g id="edge1" class="edge">
<title>warikan.domain.model.Warikan&#45;&gt;warikan.domain.model.member.Member</title>
<path fill="none" stroke="black" d="M173.14,-157.56C197.98,-150.17 234.28,-139.37 261.58,-131.24"/>
<polygon fill="black" stroke="black" points="262.61,-134.59 271.2,-128.38 260.61,-127.88 262.61,-134.59"/>
</g>
<!-- warikan.domain.model.amount.PartyPaymentTypeRatios&#45;&gt;warikan.domain.model.payment.PaymentType -->
<g id="edge4" class="edge">
<title>warikan.domain.model.amount.PartyPaymentTypeRatios&#45;&gt;warikan.domain.model.payment.PaymentType</title>
<path fill="none" stroke="black" d="M338.74,-65.04C356.78,-73.76 378.76,-84.37 398.58,-93.94"/>
<polygon fill="black" stroke="black" points="397.28,-97.2 407.81,-98.4 400.33,-90.9 397.28,-97.2"/>
</g>
<!-- warikan.domain.model.member.Member&#45;&gt;warikan.domain.model.payment.PaymentType -->
<g id="edge7" class="edge">
<title>warikan.domain.model.member.Member&#45;&gt;warikan.domain.model.payment.PaymentType</title>
<path fill="none" stroke="black" d="M329.45,-120C348.42,-120 374.1,-120 397.1,-120"/>
<polygon fill="black" stroke="black" points="397.1,-123.5 407.1,-120 397.1,-116.5 397.1,-123.5"/>
</g>
<!-- warikan.domain.model.member.Members&#45;&gt;warikan.domain.model.member.Member -->
<g id="edge9" class="edge">
<title>warikan.domain.model.member.Members&#45;&gt;warikan.domain.model.member.Member</title>
<path fill="none" stroke="black" d="M193.7,-88.55C215.59,-95.07 241.01,-102.63 261.43,-108.71"/>
<polygon fill="black" stroke="black" points="260.43,-112.07 271.02,-111.56 262.43,-105.36 260.43,-112.07"/>
</g>
</g>
</svg>
