<svg width="286px" height="253px"
 viewBox="0.00 0.00 285.73 252.64" xmlns="http://www.w3.org/2000/svg" xmlns:xlink="http://www.w3.org/1999/xlink"><g id="graph0" class="graph" transform=" rotate(0) translate(4 248.64)">
<title>パッケージ関連図</title>
<polygon fill="white" stroke="transparent" points="-4,4 -4,-248.64 281.73,-248.64 281.73,4 -4,4"/>
<text text-anchor="middle" x="138.87" y="-13.8" font-family="Times,serif" font-size="14.00">パッケージ関連図</text>
<g id="clust1" class="cluster">
<title>cluster_warikan.domain.model</title>
<polygon fill="lemonchiffon" stroke="#eedd82" stroke-width="2" points="60.19,-37 60.19,-183 214.19,-183 214.19,-37 60.19,-37"/>
<text text-anchor="middle" x="137.19" y="-167.8" font-family="Times,serif" font-size="14.00">warikan.domain.model</text>
</g>
<!-- summary -->
<g id="node1" class="node">
<title>summary</title>
<polygon fill="none" stroke="black" points="108.59,-244.46 -0.2,-244.46 -0.2,-191.18 114.59,-191.18 114.59,-238.46 108.59,-244.46"/>
<polyline fill="none" stroke="black" points="108.59,-244.46 108.59,-238.46 "/>
<polyline fill="none" stroke="black" points="114.59,-238.46 108.59,-238.46 "/>
<text text-anchor="start" x="8" y="-229.44" font-family="Times,serif" font-size="14.00">パッケージ数: 5</text>
<text text-anchor="start" x="8" y="-206.62" font-family="Times,serif" font-size="14.00">関連数: 7</text>
</g>
<!-- warikan.domain.model -->
<g id="node2" class="node">
<title>warikan.domain.model</title>
<polygon fill="#eedd82" stroke="black" points="277.77,-235.82 132.62,-235.82 132.62,-199.82 277.77,-199.82 277.77,-235.82"/>
<text text-anchor="middle" x="205.19" y="-213.62" font-family="Times,serif" font-size="14.00">warikan.domain.model</text>
</g>
<!-- warikan.domain.model.amount -->
<g id="node3" class="node">
<title>warikan.domain.model.amount</title>
<polygon fill="#eedd82" stroke="black" points="206.19,-153 148.2,-153 148.2,-117 206.19,-117 206.19,-153"/>
<text text-anchor="middle" x="177.19" y="-130.8" font-family="Times,serif" font-size="14.00">amount</text>
</g>
<!-- warikan.domain.model&#45;&gt;warikan.domain.model.amount -->
<g id="edge1" class="edge">
<title>warikan.domain.model&#45;&gt;warikan.domain.model.amount</title>
<path fill="none" stroke="black" d="M199.26,-199.68C195.54,-188.97 190.69,-174.94 186.47,-162.78"/>
<polygon fill="black" stroke="black" points="189.71,-161.42 183.12,-153.12 183.09,-163.71 189.71,-161.42"/>
</g>
<!-- warikan.domain.model.member -->
<g id="node4" class="node">
<title>warikan.domain.model.member</title>
<polygon fill="#eedd82" stroke="black" points="130.06,-153 68.33,-153 68.33,-117 130.06,-117 130.06,-153"/>
<text text-anchor="middle" x="99.19" y="-130.8" font-family="Times,serif" font-size="14.00">member</text>
</g>
<!-- warikan.domain.model&#45;&gt;warikan.domain.model.member -->
<g id="edge2" class="edge">
<title>warikan.domain.model&#45;&gt;warikan.domain.model.member</title>
<path fill="none" stroke="black" d="M165.61,-199.73C156.51,-194.95 147.17,-189.31 139.19,-183 131.3,-176.75 123.81,-168.75 117.49,-161.13"/>
<polygon fill="black" stroke="black" points="120.09,-158.78 111.13,-153.12 114.6,-163.13 120.09,-158.78"/>
</g>
<!-- warikan.domain.model.payment -->
<g id="node5" class="node">
<title>warikan.domain.model.payment</title>
<polygon fill="#eedd82" stroke="black" points="134.4,-81 69.99,-81 69.99,-45 134.4,-45 134.4,-81"/>
<text text-anchor="middle" x="102.19" y="-58.8" font-family="Times,serif" font-size="14.00">payment</text>
</g>
<!-- warikan.domain.model&#45;&gt;warikan.domain.model.payment -->
<g id="edge3" class="edge">
<title>warikan.domain.model&#45;&gt;warikan.domain.model.payment</title>
<path fill="none" stroke="black" d="M212.91,-199.8C221.22,-178.65 231.26,-142.28 215.19,-117 213.04,-113.6 175.3,-96.29 144.02,-82.36"/>
<polygon fill="black" stroke="black" points="145.12,-79.02 134.56,-78.16 142.29,-85.42 145.12,-79.02"/>
</g>
<!-- warikan.domain.model.money -->
<g id="node6" class="node">
<title>warikan.domain.model.money</title>
<polygon fill="#eedd82" stroke="black" points="206.3,-81 152.09,-81 152.09,-45 206.3,-45 206.3,-81"/>
<text text-anchor="middle" x="179.19" y="-58.8" font-family="Times,serif" font-size="14.00">money</text>
</g>
<!-- warikan.domain.model&#45;&gt;warikan.domain.model.money -->
<g id="edge7" class="edge">
<title>warikan.domain.model&#45;&gt;warikan.domain.model.money</title>
<path fill="none" stroke="black" d="M234.4,-199.8C239.97,-195.11 245.04,-189.49 248.19,-183 261.01,-156.61 261.16,-143.31 248.19,-117 241.14,-102.69 228.16,-91.16 215.35,-82.56"/>
<polygon fill="black" stroke="black" points="216.91,-79.41 206.58,-77.08 213.2,-85.35 216.91,-79.41"/>
</g>
<!-- warikan.domain.model.amount&#45;&gt;warikan.domain.model.payment -->
<g id="edge5" class="edge">
<title>warikan.domain.model.amount&#45;&gt;warikan.domain.model.payment</title>
<path fill="none" stroke="black" d="M158.66,-116.7C149.39,-108.05 138.03,-97.45 127.94,-88.03"/>
<polygon fill="black" stroke="black" points="130.22,-85.37 120.52,-81.1 125.44,-90.49 130.22,-85.37"/>
</g>
<!-- warikan.domain.model.amount&#45;&gt;warikan.domain.model.money -->
<g id="edge4" class="edge">
<title>warikan.domain.model.amount&#45;&gt;warikan.domain.model.money</title>
<path fill="none" stroke="black" d="M177.69,-116.7C177.91,-108.98 178.17,-99.71 178.42,-91.11"/>
<polygon fill="black" stroke="black" points="181.92,-91.2 178.71,-81.1 174.92,-91 181.92,-91.2"/>
</g>
<!-- warikan.domain.model.member&#45;&gt;warikan.domain.model.payment -->
<g id="edge6" class="edge">
<title>warikan.domain.model.member&#45;&gt;warikan.domain.model.payment</title>
<path fill="none" stroke="black" d="M99.94,-116.7C100.27,-108.98 100.66,-99.71 101.03,-91.11"/>
<polygon fill="black" stroke="black" points="104.53,-91.25 101.46,-81.1 97.54,-90.95 104.53,-91.25"/>
</g>
</g>
</svg>
